<?xml version="1.0" encoding="UTF-8"?>
<svg version="1.1" xmlns="http://www.w3.org/2000/svg" width="500" height="500">
<path d="M0 0 C165 0 330 0 500 0 C500 165 500 330 500 500 C335 500 170 500 0 500 C0 335 0 170 0 0 Z " fill="#000000" transform="translate(0,0)"/>
<path d="M0 0 C2.13923746 2.13923746 2.85019254 3.75384117 4.0625 6.5 C9.85008671 18.09180442 19.34467391 24.91887294 30.00048828 31.70947266 C31.39861412 32.61185277 32.77599276 33.54683101 34.13623047 34.50537109 C35.18061279 35.22007568 35.18061279 35.22007568 36.24609375 35.94921875 C36.87056396 36.38967529 37.49503418 36.83013184 38.13842773 37.28393555 C40.04022018 38.24965742 40.04022018 38.24965742 42.12817383 37.22241211 C44.09791786 35.9360539 45.62533006 34.57351857 47.25 32.875 C48.1575 31.92625 49.065 30.9775 50 30 C53.5747899 31.5180728 55.85811724 33.61574711 58.58496094 36.35791016 C59.48559265 37.25869293 60.38622437 38.15947571 61.31414795 39.08755493 C62.28766481 40.07128408 63.26107125 41.0551225 64.234375 42.0390625 C65.23713161 43.04555128 66.24033222 44.05159789 67.24395752 45.05722046 C69.87873813 47.69962147 72.50745611 50.34797428 75.13494873 52.99761963 C77.81939688 55.70256052 80.50954622 58.40181821 83.19921875 61.1015625 C88.47173618 66.39550174 93.73786057 71.69574283 99 77 C97.64062915 79.8605891 96.35479531 81.85927699 94 84 C95.99666365 88.98588841 100.1056933 92.00746127 103.98046875 95.5625 C106 98 106 98 105.93739319 99.81988525 C104.60191445 102.9258358 102.40040431 104.99232953 100.02124023 107.31933594 C99.50415497 107.83685928 98.9870697 108.35438263 98.45431519 108.8875885 C96.74609034 110.59372597 95.02749105 112.28899592 93.30859375 113.984375 C92.12109704 115.16627559 90.93426165 116.34884096 89.74806213 117.53204346 C86.6261371 120.64252102 83.49530756 123.74388392 80.36254883 126.84344482 C77.16661903 130.00867181 73.9791781 133.18242168 70.79101562 136.35546875 C64.53563046 142.57869148 58.27080675 148.79231978 52 155 C48.15916812 153.41193982 45.69372 150.96607119 42.7565918 148.06298828 C42.24721573 147.56193573 41.73783966 147.06088318 41.21302795 146.54464722 C39.53629965 144.89195475 37.8672743 143.23175518 36.19921875 141.5703125 C35.03676336 140.41682389 33.87423073 139.26341312 32.71162415 138.1100769 C30.27952491 135.69444961 27.85183828 133.27447868 25.42651367 130.85205078 C22.31312625 127.74406447 19.18388161 124.65257932 16.05049419 121.56477547 C13.64608522 119.1900466 11.25294636 116.80420496 8.86283302 114.41509628 C7.71341774 113.26989645 6.55986674 112.12883241 5.40219688 110.99197769 C3.78825693 109.40478132 2.19075209 107.80267378 0.59643555 106.19580078 C-0.31749466 105.28694122 -1.23142487 104.37808167 -2.17304993 103.44168091 C-4 101 -4 101 -3.94377136 98.85006714 C-2.38206513 95.78866742 0.10195089 93.59074709 2.5625 91.25 C3.34270508 90.49009766 3.34270508 90.49009766 4.13867188 89.71484375 C5.41910084 88.46965595 6.70867554 87.23388498 8 86 C7.67 85.01 7.34 84.02 7 83 C1.97211438 82.90795633 -2.85610704 83.13792586 -7.84912109 83.7121582 C-26.02138994 85.78301699 -45.24450338 87.1054804 -63 82 C-64.20011719 81.67128906 -65.40023437 81.34257812 -66.63671875 81.00390625 C-81.0938628 76.63806024 -94.18687688 69.36374986 -106 60 C-102.27946929 60 -100.27411482 61.1779962 -96.9375 62.8125 C-74.35504403 73.46318001 -49.9981555 70.28763498 -25.84375 68.13769531 C-15.10060758 67.19054221 -4.41854561 66.57655831 6.37255859 66.46704102 C7.34531738 66.44697998 8.31807617 66.42691895 9.3203125 66.40625 C10.15836426 66.39916016 10.99641602 66.39207031 11.85986328 66.38476562 C14.46015859 65.91727014 15.35247845 65.01193493 17 63 C13.52922797 60.68615198 10.3159442 60.12709991 6.3125 59.3125 C-2.69771186 57.325989 -10.76426559 54.11675757 -19 50 C-20.07121094 49.46503906 -21.14242187 48.93007812 -22.24609375 48.37890625 C-36.29001759 40.76341049 -48.13254102 28.15816494 -57 15 C-56.67 14.34 -56.34 13.68 -56 13 C-55.33355469 13.78503906 -54.66710937 14.57007813 -53.98046875 15.37890625 C-40.42027791 30.99065723 -23.61791849 37.48282285 -3.94775391 42.27001953 C-0.52358625 43.11797889 2.88808151 44.00937089 6.30078125 44.90234375 C8.84622357 45.56040121 11.3917962 46.2179548 13.9375 46.875 C15.16484863 47.19782959 16.39219727 47.52065918 17.65673828 47.85327148 C19.38706299 48.29328491 19.38706299 48.29328491 21.15234375 48.7421875 C22.18351318 49.0088623 23.21468262 49.27553711 24.27709961 49.55029297 C27.00215736 50.0003563 28.48102661 50.09678625 31 49 C31.66 48.01 32.32 47.02 33 46 C32.41734375 45.73445313 31.8346875 45.46890625 31.234375 45.1953125 C27.31398803 43.09804255 24.25595518 39.99452812 21 37 C20.33484375 36.4121875 19.6696875 35.824375 18.984375 35.21875 C9.64715751 26.54322509 3.67404763 15.11729169 0 3 C0 2.01 0 1.02 0 0 Z " fill="#FAB43C" transform="translate(147,162)"/>
<path d="M0 0 C5.14200581 4.29543946 9.92038005 8.80593392 14.6159668 13.58178711 C15.3420816 14.31578735 16.06819641 15.0497876 16.8163147 15.80603027 C18.38107564 17.38789379 19.94478674 18.97079636 21.50754356 20.55463982 C24.82880421 23.91810696 28.15950871 27.27215501 31.48967457 30.62680149 C37.68094914 36.86378177 43.86825852 43.10457247 50.03930664 49.36157227 C54.34194073 53.72340774 58.65652446 58.07309609 62.97941017 62.41485786 C64.6246286 64.07185171 66.26529248 65.73338031 67.90134239 67.39942741 C70.18032327 69.71916865 72.47417385 72.02313853 74.7722168 74.32397461 C75.44814377 75.01944901 76.12407074 75.7149234 76.82048035 76.43147278 C77.44692444 77.05248871 78.07336853 77.67350464 78.71879578 78.31333923 C79.25909266 78.85954391 79.79938955 79.40574858 80.35605907 79.96850491 C81.97397833 81.2208934 81.97397833 81.2208934 84.08036518 80.77034855 C86.66756489 79.73210652 88.12651796 78.2281473 90.08203125 76.24609375 C91.23348633 75.0869043 91.23348633 75.0869043 92.40820312 73.90429688 C93.20162109 73.09025391 93.99503906 72.27621094 94.8125 71.4375 C95.98522461 70.25704102 95.98522461 70.25704102 97.18164062 69.05273438 C100.56942872 65.61966257 103.86827211 62.16157035 107.0012207 58.49438477 C112.20047265 52.52386409 117.8603034 46.995743 123.4609375 41.40625 C124.65937645 40.20713636 125.85766701 39.0078744 127.05581665 37.80847168 C129.55040294 35.31242015 132.04676658 32.818164 134.54443359 30.32519531 C137.75255393 27.12281511 140.95610542 23.91590754 144.15837669 20.70767975 C146.62371919 18.23873671 149.09142217 15.77216414 151.55986404 13.30632019 C152.74320585 12.12364683 153.92580152 10.94022643 155.10764694 9.75605774 C156.74954127 8.11164059 158.39457721 6.47043427 160.04052734 4.83007812 C160.77604828 4.09152084 160.77604828 4.09152084 161.52642822 3.33804321 C164.88572851 0 164.88572851 0 166 0 C166 54.78 166 109.56 166 166 C157.09 166 148.18 166 139 166 C138.67 133.66 138.34 101.32 138 68 C120.18 85.82 102.36 103.64 84 122 C78.96625165 117.68535856 74.01906449 113.3462455 69.13696289 108.86938477 C68.38491577 108.18012909 67.63286865 107.49087341 66.85803223 106.7807312 C59.92935589 100.40539387 53.10144884 93.92660934 46.30642033 87.40922642 C41.75813367 83.05230841 37.18135721 78.73927431 32.51342773 74.51049805 C-1.41058754 43.70147577 -1.41058754 43.70147577 -2.54282856 25.00133801 C-2.6913846 16.55579824 -1.69906462 8.25985339 0 0 Z " fill="#FDB63D" transform="translate(198,143)"/>
<path d="M0 0 C4.75085867 3.96372525 9.23613112 8.09794782 13.58984375 12.4921875 C14.17923233 13.08299103 14.76862091 13.67379456 15.37586975 14.28250122 C17.23213727 16.14430404 19.08487085 18.00957745 20.9375 19.875 C22.20614672 21.14867011 23.4750249 22.42210971 24.74414062 23.6953125 C27.83210554 26.79422043 30.91690929 29.89624301 34 33 C36.95265112 31.67005617 39.02350216 30.22220684 41.29980469 27.92724609 C41.92014587 27.30675385 42.54048706 26.6862616 43.17962646 26.04696655 C43.83706848 25.37920197 44.4945105 24.71143738 45.171875 24.0234375 C46.1955014 22.99556625 46.1955014 22.99556625 47.23980713 21.94692993 C49.41461598 19.76094155 51.58236072 17.56809571 53.75 15.375 C55.2247999 13.89016745 56.70005506 12.40578694 58.17578125 10.921875 C61.78915448 7.2864709 65.39620853 3.64490176 69 0 C71.31 1.98 73.62 3.96 76 6 C74.22903376 9.54193248 73.0040446 11.2410153 70.28466797 13.94238281 C69.52403046 14.70286926 68.76339294 15.46335571 67.97970581 16.24688721 C67.15882477 17.05744568 66.33794373 17.86800415 65.4921875 18.703125 C64.65156769 19.54091492 63.81094788 20.37870483 62.94485474 21.24188232 C60.25955999 23.91598431 57.56739345 26.58304724 54.875 29.25 C53.05292845 31.06204062 51.23130823 32.87453518 49.41015625 34.6875 C44.94532748 39.13028036 40.47483717 43.56730165 36 48 C32.72803548 46.56741228 30.56796044 44.81174684 28.05761719 42.28466797 C27.29713074 41.52403046 26.53664429 40.76339294 25.75311279 39.97970581 C24.94255432 39.15882477 24.13199585 38.33794373 23.296875 37.4921875 C22.45908508 36.65156769 21.62129517 35.81094788 20.75811768 34.94485474 C18.08401569 32.25955999 15.41695276 29.56739345 12.75 26.875 C10.93795938 25.05292845 9.12546482 23.23130823 7.3125 21.41015625 C2.86971964 16.94532748 -1.56730165 12.47483717 -6 8 C-4.44805246 4.67240077 -2.69378051 2.51419515 0 0 Z " fill="#010100" transform="translate(163,254)"/>
<path d="M0 0 C13.30441024 -0.36956695 13.30441024 -0.36956695 16.43359375 1.29296875 C18 3 18 3 18.3125 6.5 C18 10 18 10 17 13 C17.33 13.66 17.66 14.32 18 15 C18.26554687 14.33613281 18.53109375 13.67226563 18.8046875 12.98828125 C20.53645833 8.65885417 22.26822917 4.32942708 24 0 C26.97 0 29.94 0 33 0 C35.66557258 6.05022986 37.51030705 11.38914524 38 18 C36.35 18 34.7 18 33 18 C32.505 16.515 32.505 16.515 32 15 C29.69 15 27.38 15 25 15 C25 15.99 25 16.98 25 18 C22.89758397 18.13496251 20.7927039 18.23197307 18.6875 18.3125 C17.51574219 18.37050781 16.34398437 18.42851562 15.13671875 18.48828125 C14.10160156 18.32714844 13.06648438 18.16601562 12 18 C10.20703125 15.54296875 10.20703125 15.54296875 9 13 C8.34 12.67 7.68 12.34 7 12 C7 13.98 7 15.96 7 18 C4.69 18 2.38 18 0 18 C0 12.06 0 6.12 0 0 Z " fill="#EBA939" transform="translate(255,332)"/>
<path d="M0 0 C2.248125 -0.04125 4.49625 -0.0825 6.8125 -0.125 C8.07707031 -0.14820313 9.34164063 -0.17140625 10.64453125 -0.1953125 C14 0 14 0 17 2 C17.125 5.5625 17.125 5.5625 17 9 C17.33 9.33 17.66 9.66 18 10 C18.3125 12.375 18.3125 12.375 18 15 C15.53872514 17.59630739 14.15075176 17.98720998 10.546875 18.29296875 C7.03125 18.1953125 3.515625 18.09765625 0 18 C0 12.06 0 6.12 0 0 Z " fill="#E7A738" transform="translate(295,332)"/>
<path d="M0 0 C1.4540625 0.0309375 1.4540625 0.0309375 2.9375 0.0625 C3.9275 2.0425 4.9175 4.0225 5.9375 6.0625 C6.47375 5.0725 7.01 4.0825 7.5625 3.0625 C8.34625 2.0725 9.13 1.0825 9.9375 0.0625 C11.9175 0.0625 13.8975 0.0625 15.9375 0.0625 C15.9375 6.0025 15.9375 11.9425 15.9375 18.0625 C13.9575 18.0625 11.9775 18.0625 9.9375 18.0625 C9.6075 16.4125 9.2775 14.7625 8.9375 13.0625 C8.298125 13.248125 7.65875 13.43375 7 13.625 C6.319375 13.769375 5.63875 13.91375 4.9375 14.0625 C4.6075 13.7325 4.2775 13.4025 3.9375 13.0625 C3.6075 14.7125 3.2775 16.3625 2.9375 18.0625 C0.6275 18.0625 -1.6825 18.0625 -4.0625 18.0625 C-4.08934312 15.24993719 -4.10926188 12.43762759 -4.125 9.625 C-4.13337891 8.82255859 -4.14175781 8.02011719 -4.15039062 7.19335938 C-4.1590143 5.14954779 -4.1147815 3.10566098 -4.0625 1.0625 C-3.0625 0.0625 -3.0625 0.0625 0 0 Z " fill="#EDAB39" transform="translate(198.0625,331.9375)"/>
<path d="M0 0 C5.61 0 11.22 0 17 0 C17 1.65 17 3.3 17 5 C13.37 5 9.74 5 6 5 C6 5.66 6 6.32 6 7 C9.3 7 12.6 7 16 7 C15.67 8.65 15.34 10.3 15 12 C15.66 12.33 16.32 12.66 17 13 C17 14.65 17 16.3 17 18 C11.39 18 5.78 18 0 18 C0 12.06 0 6.12 0 0 Z " fill="#F3AF3B" transform="translate(216,332)"/>
<path d="M0 0 C1.98 0 3.96 0 6 0 C7 1 7 1 7.0625 3.5625 C7.041875 4.366875 7.02125 5.17125 7 6 C8.65 6 10.3 6 12 6 C12 4.02 12 2.04 12 0 C13.98 0 15.96 0 18 0 C18 5.94 18 11.88 18 18 C16.02 18 14.04 18 12 18 C12 16.02 12 14.04 12 12 C10.35 12 8.7 12 7 12 C7 13.98 7 15.96 7 18 C4.69 18 2.38 18 0 18 C0 12.06 0 6.12 0 0 Z " fill="#F5B13B" transform="translate(235,332)"/>
<path d="M0 0 C0.33 0 0.66 0 1 0 C1 5.61 1 11.22 1 17 C0.34 17 -0.32 17 -1 17 C-1 15.35 -1 13.7 -1 12 C-4.3 12 -7.6 12 -11 12 C-11 11.67 -11 11.34 -11 11 C-8.36 10.67 -5.72 10.34 -3 10 C-2.67 8.68 -2.34 7.36 -2 6 C-5.3 6 -8.6 6 -12 6 C-12 5.34 -12 4.68 -12 4 C-8.04 4 -4.08 4 0 4 C0 2.68 0 1.36 0 0 Z " fill="#1D1507" transform="translate(234,333)"/>
<path d="M0 0 C3.96 0 7.92 0 12 0 C12 1.65 12 3.3 12 5 C8.04 5 4.08 5 0 5 C0 3.35 0 1.7 0 0 Z " fill="#E6A637" transform="translate(317,339)"/>
<path d="M0 0 C3.63 0 7.26 0 11 0 C11 1.65 11 3.3 11 5 C7.37 5 3.74 5 0 5 C0 3.35 0 1.7 0 0 Z " fill="#F3B03B" transform="translate(337,339)"/>
<path d="M0 0 C3.63 0 7.26 0 11 0 C11 1.65 11 3.3 11 5 C7.37 5 3.74 5 0 5 C0 3.35 0 1.7 0 0 Z " fill="#F8B33C" transform="translate(179,339)"/>
<path d="M0 0 C3.63 0 7.26 0 11 0 C11 1.65 11 3.3 11 5 C7.37 5 3.74 5 0 5 C0 3.35 0 1.7 0 0 Z " fill="#F3B03B" transform="translate(159,339)"/>
<path d="M0 0 C3.26008643 3.16952847 6.22237877 6.39937989 9 10 C8.01 10 7.02 10 6 10 C4.39453125 8.3203125 4.39453125 8.3203125 2.8125 6.125 C2.01779297 5.04605469 2.01779297 5.04605469 1.20703125 3.9453125 C0 2 0 2 0 0 Z " fill="#A07326" transform="translate(90,175)"/>
</svg>
