<svg id="svg" version="1.1" xmlns="http://www.w3.org/2000/svg" xmlns:xlink="http://www.w3.org/1999/xlink" width="400" height="400" viewBox="0, 0, 400,400"><g id="svgg"><path id="path0" d="M188.200 106.851 C 187.100 107.048,185.030 107.404,183.600 107.643 C 173.445 109.342,161.820 113.593,152.424 119.043 C 149.756 120.590,146.162 123.058,142.698 125.719 C 139.603 128.098,139.593 128.102,137.898 127.676 C 133.548 126.583,132.166 126.400,128.253 126.400 C 123.089 126.400,120.000 127.025,120.000 128.069 C 120.000 128.717,120.375 128.802,123.300 128.814 C 128.103 128.835,134.805 130.684,134.795 131.986 C 134.793 132.324,133.472 133.950,131.861 135.600 C 124.222 143.424,116.545 155.287,112.838 165.000 C 112.334 166.320,111.771 167.760,111.587 168.200 C 111.288 168.917,110.969 169.915,109.991 173.200 C 109.688 174.216,109.108 176.390,108.418 179.100 C 108.207 179.925,107.834 181.860,107.589 183.400 C 107.343 184.940,106.975 187.175,106.771 188.367 C 106.272 191.279,106.298 207.472,106.806 210.767 C 107.030 212.215,107.405 214.660,107.641 216.200 C 107.876 217.740,108.223 219.630,108.411 220.400 C 108.599 221.170,108.967 222.700,109.229 223.800 C 113.374 241.223,126.248 261.217,140.800 272.833 C 142.010 273.799,143.090 274.699,143.200 274.834 C 143.504 275.208,150.396 279.791,152.100 280.753 C 157.848 283.998,158.912 284.556,162.022 285.947 C 164.967 287.264,173.154 290.051,176.200 290.773 C 177.300 291.034,178.830 291.399,179.600 291.584 C 180.370 291.770,182.260 292.132,183.800 292.390 C 185.340 292.647,187.575 293.025,188.767 293.229 C 189.958 293.433,195.178 293.597,200.367 293.593 C 210.002 293.585,212.082 293.362,222.405 291.232 C 224.072 290.888,231.957 288.401,233.800 287.638 C 234.240 287.456,235.050 287.130,235.600 286.913 C 244.642 283.346,255.370 276.484,263.200 269.259 C 265.805 266.855,265.485 266.919,267.882 268.323 C 270.796 270.030,274.792 271.530,278.600 272.348 C 279.700 272.584,281.445 272.962,282.477 273.189 C 284.490 273.630,293.421 273.672,295.395 273.250 C 298.767 272.528,296.014 271.215,291.106 271.203 C 287.743 271.196,281.032 268.845,277.080 266.291 C 274.049 264.333,271.200 262.031,271.200 261.540 C 271.200 261.197,274.493 256.731,276.023 255.000 C 276.685 254.250,279.916 249.135,281.707 246.000 C 282.843 244.011,285.011 239.682,285.813 237.800 C 286.188 236.920,286.742 235.636,287.044 234.947 C 287.953 232.872,290.011 226.431,290.989 222.600 C 291.841 219.259,292.089 217.931,293.194 210.767 C 293.721 207.347,293.718 193.181,293.189 189.477 C 292.243 182.861,291.461 178.586,290.797 176.400 C 290.630 175.850,290.266 174.590,289.989 173.600 C 283.092 148.971,263.855 126.294,240.600 115.380 C 238.400 114.347,236.150 113.320,235.600 113.098 C 235.050 112.875,234.240 112.542,233.800 112.357 C 230.113 110.809,221.239 108.405,216.400 107.644 C 214.970 107.419,212.609 107.047,211.154 106.817 C 207.994 106.319,191.042 106.344,188.200 106.851 M212.200 112.612 C 225.372 115.068,230.041 116.513,238.911 120.879 C 250.314 126.490,262.899 136.797,269.865 146.229 C 270.341 146.873,271.371 148.250,272.154 149.289 C 276.340 154.843,281.081 164.335,283.780 172.570 C 285.464 177.704,286.442 182.252,287.589 190.277 C 288.116 193.966,288.121 206.541,287.597 209.967 C 286.713 215.746,286.349 217.861,286.008 219.200 C 285.811 219.970,285.437 221.500,285.177 222.600 C 283.520 229.590,278.862 240.310,274.665 246.793 C 272.258 250.511,267.549 256.800,267.172 256.800 C 266.690 256.800,263.710 251.926,262.281 248.800 C 259.087 241.815,257.753 236.583,255.600 222.600 C 255.363 221.060,255.007 218.810,254.809 217.600 C 254.612 216.390,254.248 214.050,254.000 212.400 C 253.752 210.750,253.388 208.410,253.191 207.200 C 252.993 205.990,252.637 203.740,252.400 202.200 C 252.163 200.660,251.809 198.410,251.614 197.200 C 251.202 194.638,250.620 190.953,250.005 187.000 C 249.765 185.460,249.407 183.210,249.209 182.000 C 249.012 180.790,248.648 178.450,248.400 176.800 C 248.152 175.150,247.788 172.810,247.591 171.600 C 247.393 170.390,247.037 168.140,246.800 166.600 C 246.563 165.060,246.207 162.810,246.009 161.600 C 245.812 160.390,245.449 158.050,245.204 156.400 C 244.958 154.750,244.600 152.500,244.408 151.400 C 244.216 150.300,243.842 147.870,243.577 146.000 C 242.740 140.086,241.817 138.356,240.842 140.871 C 240.644 141.382,239.943 142.970,239.284 144.400 C 238.625 145.830,237.706 147.855,237.243 148.900 C 236.779 149.945,236.020 151.655,235.554 152.700 C 234.478 155.119,233.315 157.736,232.354 159.900 C 231.394 162.064,230.231 164.681,229.154 167.100 C 228.689 168.145,227.990 169.720,227.600 170.600 C 227.210 171.480,226.490 173.100,226.000 174.200 C 225.510 175.300,224.790 176.920,224.400 177.800 C 223.621 179.558,222.546 181.978,221.246 184.900 C 220.780 185.945,220.020 187.655,219.555 188.700 C 219.091 189.745,218.281 191.545,217.755 192.700 C 217.230 193.855,216.370 195.745,215.845 196.900 C 215.319 198.055,214.530 199.810,214.090 200.800 C 213.651 201.790,212.890 203.500,212.400 204.600 C 211.910 205.700,211.190 207.320,210.800 208.200 C 210.410 209.080,209.711 210.655,209.246 211.700 C 208.169 214.119,207.006 216.736,206.046 218.900 C 204.405 222.597,203.469 224.691,202.555 226.712 C 202.030 227.873,201.600 228.998,201.600 229.212 C 201.600 230.318,200.312 229.359,199.568 227.700 C 199.100 226.655,198.196 224.675,197.558 223.300 C 196.921 221.925,195.860 219.630,195.200 218.200 C 194.540 216.770,193.460 214.430,192.800 213.000 C 192.140 211.570,191.060 209.230,190.400 207.800 C 189.740 206.370,188.660 204.030,188.000 202.600 C 187.340 201.170,186.260 198.830,185.600 197.400 C 184.940 195.970,183.881 193.675,183.247 192.300 C 182.612 190.925,181.439 188.404,180.641 186.699 C 179.842 184.993,178.721 182.563,178.151 181.299 C 177.580 180.034,176.500 177.694,175.751 176.099 C 175.001 174.503,173.921 172.163,173.351 170.899 C 172.781 169.634,171.640 167.160,170.816 165.400 C 169.992 163.640,168.992 161.480,168.595 160.600 C 161.459 144.801,155.326 136.536,147.155 131.710 C 145.531 130.750,145.673 130.393,148.500 128.333 C 156.290 122.656,166.757 117.618,175.800 115.191 C 176.460 115.014,177.990 114.600,179.200 114.272 C 180.410 113.943,182.840 113.457,184.600 113.191 C 186.360 112.926,188.520 112.568,189.400 112.397 C 192.407 111.812,208.734 111.966,212.200 112.612 M144.055 138.718 C 147.893 142.755,151.929 148.550,154.453 153.650 C 155.052 154.860,155.109 155.488,154.802 157.450 C 154.600 158.742,154.238 161.600,153.998 163.800 C 153.758 166.000,153.384 169.330,153.166 171.200 C 152.578 176.243,151.458 185.944,150.811 191.600 C 150.572 193.690,150.207 196.840,150.000 198.600 C 149.793 200.360,149.428 203.510,149.189 205.600 C 148.782 209.160,148.514 211.486,147.600 219.400 C 147.397 221.160,147.054 224.130,146.838 226.000 C 145.760 235.340,145.468 237.155,144.740 239.045 C 143.264 242.874,139.165 245.600,134.885 245.600 C 132.638 245.600,131.520 246.187,132.294 246.961 C 132.704 247.370,161.132 247.233,161.388 246.820 C 161.752 246.230,160.223 245.600,158.426 245.600 C 157.073 245.600,156.542 245.342,155.263 244.063 C 152.909 241.709,152.914 243.334,155.192 217.800 C 155.408 215.380,155.761 211.420,155.976 209.000 C 156.190 206.580,156.553 202.485,156.783 199.900 C 157.012 197.315,157.384 193.085,157.609 190.500 C 157.833 187.915,158.185 183.910,158.391 181.600 C 158.597 179.290,158.957 175.082,159.191 172.249 C 159.845 164.335,159.776 164.302,164.477 174.800 C 164.920 175.790,165.804 177.725,166.442 179.100 C 167.079 180.475,168.140 182.770,168.800 184.200 C 169.460 185.630,170.521 187.925,171.158 189.300 C 171.794 190.675,172.763 192.790,173.311 194.000 C 173.859 195.210,174.868 197.415,175.554 198.900 C 176.239 200.385,177.340 202.770,178.000 204.200 C 178.660 205.630,179.761 208.015,180.446 209.500 C 181.132 210.985,182.141 213.190,182.689 214.400 C 183.237 215.610,184.206 217.725,184.842 219.100 C 185.479 220.475,186.540 222.770,187.200 224.200 C 187.860 225.630,188.921 227.925,189.558 229.300 C 190.194 230.675,191.201 232.880,191.796 234.200 C 192.390 235.520,193.385 237.680,194.007 239.000 C 194.629 240.320,195.952 243.155,196.947 245.300 C 199.006 249.737,200.800 250.478,200.800 246.892 C 200.800 246.017,202.227 241.338,202.809 240.305 C 203.024 239.923,203.200 239.434,203.200 239.217 C 203.200 239.001,203.630 237.873,204.155 236.712 C 205.052 234.729,205.739 233.191,207.554 229.100 C 207.969 228.165,208.710 226.500,209.200 225.400 C 209.690 224.300,210.431 222.635,210.846 221.700 C 211.260 220.765,211.980 219.145,212.446 218.100 C 214.047 214.501,214.710 212.991,216.000 210.000 C 217.265 207.067,217.886 205.651,219.509 202.000 C 219.949 201.010,220.669 199.390,221.109 198.400 C 221.549 197.410,222.289 195.745,222.754 194.700 C 223.220 193.655,223.960 191.990,224.400 191.000 C 224.840 190.010,225.560 188.390,226.000 187.400 C 226.440 186.410,227.160 184.790,227.600 183.800 C 228.040 182.810,228.780 181.145,229.246 180.100 C 229.711 179.055,230.431 177.435,230.846 176.500 C 231.803 174.343,233.041 171.557,234.180 169.000 C 234.670 167.900,235.324 166.415,235.633 165.700 C 236.456 163.798,236.620 164.034,237.163 167.900 C 237.433 169.825,237.811 172.480,238.003 173.800 C 238.195 175.120,238.543 177.595,238.776 179.300 C 239.009 181.005,239.391 183.795,239.624 185.500 C 239.857 187.205,240.205 189.680,240.397 191.000 C 240.589 192.320,240.950 195.020,241.200 197.000 C 241.450 198.980,241.811 201.680,242.003 203.000 C 242.378 205.578,242.950 209.727,243.614 214.700 C 243.842 216.405,244.196 218.970,244.400 220.400 C 244.604 221.830,244.969 224.440,245.211 226.200 C 246.784 237.650,247.989 242.170,251.342 249.200 C 253.328 253.365,258.065 260.230,260.138 261.949 C 261.525 263.099,260.230 264.833,254.963 268.879 C 254.323 269.371,253.710 269.889,253.600 270.031 C 252.155 271.901,236.970 280.505,232.600 281.931 C 231.720 282.218,230.640 282.609,230.200 282.800 C 227.253 284.080,219.900 286.014,215.000 286.800 C 213.460 287.047,211.331 287.418,210.269 287.624 C 207.764 288.112,192.375 288.111,189.567 287.624 C 188.375 287.417,186.050 287.037,184.400 286.781 C 181.699 286.361,180.119 285.995,175.600 284.743 C 174.830 284.529,173.660 284.206,173.000 284.025 C 170.142 283.239,164.221 280.886,162.000 279.655 C 161.670 279.471,160.067 278.633,158.439 277.791 C 137.481 266.957,120.593 245.384,114.607 221.800 C 113.758 218.459,113.511 217.125,112.406 209.967 C 111.486 204.003,112.017 189.420,113.389 183.000 C 114.697 176.875,116.328 171.129,117.219 169.505 C 117.429 169.123,117.600 168.634,117.600 168.417 C 117.600 167.973,119.014 164.755,121.036 160.597 C 122.532 157.522,126.100 151.489,127.469 149.722 C 127.947 149.105,129.207 147.432,130.269 146.005 C 132.280 143.302,139.883 135.200,140.408 135.200 C 140.574 135.200,142.215 136.783,144.055 138.718 " stroke="none" fill="#f6f6f6" fill-rule="evenodd"></path><path id="path1" d="M0.000 200.000 L 0.000 400.000 200.000 400.000 L 400.000 400.000 400.000 200.000 L 400.000 0.000 200.000 0.000 L 0.000 0.000 0.000 200.000 M211.154 106.817 C 212.609 107.047,214.970 107.419,216.400 107.644 C 221.239 108.405,230.113 110.809,233.800 112.357 C 234.240 112.542,235.050 112.875,235.600 113.098 C 246.975 117.701,256.852 124.416,266.613 134.184 C 277.872 145.451,285.893 158.976,289.989 173.600 C 290.266 174.590,290.630 175.850,290.797 176.400 C 291.461 178.586,292.243 182.861,293.189 189.477 C 293.718 193.181,293.721 207.347,293.194 210.767 C 292.089 217.931,291.841 219.259,290.989 222.600 C 290.011 226.431,287.953 232.872,287.044 234.947 C 286.742 235.636,286.188 236.920,285.813 237.800 C 285.011 239.682,282.843 244.011,281.707 246.000 C 279.916 249.135,276.685 254.250,276.023 255.000 C 274.493 256.731,271.200 261.197,271.200 261.540 C 271.200 262.031,274.049 264.333,277.080 266.291 C 281.032 268.845,287.743 271.196,291.106 271.203 C 296.014 271.215,298.767 272.528,295.395 273.250 C 293.421 273.672,284.490 273.630,282.477 273.189 C 281.445 272.962,279.700 272.584,278.600 272.348 C 274.792 271.530,270.796 270.030,267.882 268.323 C 265.485 266.919,265.805 266.855,263.200 269.259 C 255.370 276.484,244.642 283.346,235.600 286.913 C 235.050 287.130,234.240 287.456,233.800 287.638 C 231.957 288.401,224.072 290.888,222.405 291.232 C 212.082 293.362,210.002 293.585,200.367 293.593 C 195.178 293.597,189.958 293.433,188.767 293.229 C 187.575 293.025,185.340 292.647,183.800 292.390 C 182.260 292.132,180.370 291.770,179.600 291.584 C 178.830 291.399,177.300 291.034,176.200 290.773 C 173.154 290.051,164.967 287.264,162.022 285.947 C 158.912 284.556,157.848 283.998,152.100 280.753 C 150.396 279.791,143.504 275.208,143.200 274.834 C 143.090 274.699,142.010 273.799,140.800 272.833 C 126.248 261.217,113.374 241.223,109.229 223.800 C 108.967 222.700,108.599 221.170,108.411 220.400 C 108.223 219.630,107.876 217.740,107.641 216.200 C 107.405 214.660,107.030 212.215,106.806 210.767 C 106.298 207.472,106.272 191.279,106.771 188.367 C 106.975 187.175,107.343 184.940,107.589 183.400 C 107.834 181.860,108.207 179.925,108.418 179.100 C 109.108 176.390,109.688 174.216,109.991 173.200 C 110.969 169.915,111.288 168.917,111.587 168.200 C 111.771 167.760,112.334 166.320,112.838 165.000 C 116.545 155.287,124.222 143.424,131.861 135.600 C 133.472 133.950,134.793 132.324,134.795 131.986 C 134.805 130.684,128.103 128.835,123.300 128.814 C 120.375 128.802,120.000 128.717,120.000 128.069 C 120.000 127.025,123.089 126.400,128.253 126.400 C 132.166 126.400,133.548 126.583,137.898 127.676 C 139.593 128.102,139.603 128.098,142.698 125.719 C 153.927 117.092,164.874 111.958,179.600 108.415 C 180.370 108.230,182.170 107.883,183.600 107.643 C 185.030 107.404,187.100 107.048,188.200 106.851 C 191.042 106.344,207.994 106.319,211.154 106.817 M189.400 112.397 C 188.520 112.568,186.360 112.926,184.600 113.191 C 182.840 113.457,180.410 113.943,179.200 114.272 C 177.990 114.600,176.460 115.014,175.800 115.191 C 166.757 117.618,156.290 122.656,148.500 128.333 C 145.673 130.393,145.531 130.750,147.155 131.710 C 155.326 136.536,161.459 144.801,168.595 160.600 C 168.992 161.480,169.992 163.640,170.816 165.400 C 171.640 167.160,172.781 169.634,173.351 170.899 C 173.921 172.163,175.001 174.503,175.751 176.099 C 176.500 177.694,177.580 180.034,178.151 181.299 C 178.721 182.563,179.842 184.993,180.641 186.699 C 181.439 188.404,182.612 190.925,183.247 192.300 C 183.881 193.675,184.940 195.970,185.600 197.400 C 186.260 198.830,187.340 201.170,188.000 202.600 C 188.660 204.030,189.740 206.370,190.400 207.800 C 191.060 209.230,192.140 211.570,192.800 213.000 C 193.460 214.430,194.540 216.770,195.200 218.200 C 195.860 219.630,196.921 221.925,197.558 223.300 C 198.196 224.675,199.100 226.655,199.568 227.700 C 200.312 229.359,201.600 230.318,201.600 229.212 C 201.600 228.998,202.030 227.873,202.555 226.712 C 203.469 224.691,204.405 222.597,206.046 218.900 C 207.006 216.736,208.169 214.119,209.246 211.700 C 209.711 210.655,210.410 209.080,210.800 208.200 C 211.190 207.320,211.910 205.700,212.400 204.600 C 212.890 203.500,213.651 201.790,214.090 200.800 C 214.530 199.810,215.319 198.055,215.845 196.900 C 216.370 195.745,217.230 193.855,217.755 192.700 C 218.281 191.545,219.091 189.745,219.555 188.700 C 220.020 187.655,220.780 185.945,221.246 184.900 C 222.546 181.978,223.621 179.558,224.400 177.800 C 224.790 176.920,225.510 175.300,226.000 174.200 C 226.490 173.100,227.210 171.480,227.600 170.600 C 227.990 169.720,228.689 168.145,229.154 167.100 C 230.231 164.681,231.394 162.064,232.354 159.900 C 232.769 158.965,233.469 157.390,233.909 156.400 C 234.349 155.410,235.089 153.745,235.554 152.700 C 236.020 151.655,236.779 149.945,237.243 148.900 C 237.706 147.855,238.625 145.830,239.284 144.400 C 239.943 142.970,240.644 141.382,240.842 140.871 C 241.817 138.356,242.740 140.086,243.577 146.000 C 243.842 147.870,244.216 150.300,244.408 151.400 C 244.600 152.500,244.958 154.750,245.204 156.400 C 245.449 158.050,245.812 160.390,246.009 161.600 C 246.207 162.810,246.563 165.060,246.800 166.600 C 247.037 168.140,247.393 170.390,247.591 171.600 C 247.788 172.810,248.152 175.150,248.400 176.800 C 248.648 178.450,249.012 180.790,249.209 182.000 C 249.407 183.210,249.765 185.460,250.005 187.000 C 250.620 190.953,251.202 194.638,251.614 197.200 C 251.809 198.410,252.163 200.660,252.400 202.200 C 252.637 203.740,252.993 205.990,253.191 207.200 C 253.388 208.410,253.752 210.750,254.000 212.400 C 254.248 214.050,254.612 216.390,254.809 217.600 C 255.007 218.810,255.363 221.060,255.600 222.600 C 257.753 236.583,259.087 241.815,262.281 248.800 C 263.710 251.926,266.690 256.800,267.172 256.800 C 267.549 256.800,272.258 250.511,274.665 246.793 C 278.862 240.310,283.520 229.590,285.177 222.600 C 285.437 221.500,285.811 219.970,286.008 219.200 C 286.349 217.861,286.713 215.746,287.597 209.967 C 288.121 206.541,288.116 193.966,287.589 190.277 C 286.442 182.252,285.464 177.704,283.780 172.570 C 281.081 164.335,276.340 154.843,272.154 149.289 C 271.371 148.250,270.341 146.873,269.865 146.229 C 262.899 136.797,250.314 126.490,238.911 120.879 C 230.041 116.513,225.372 115.068,212.200 112.612 C 208.734 111.966,192.407 111.812,189.400 112.397 M136.153 139.305 C 133.979 141.562,131.331 144.577,130.269 146.005 C 129.207 147.432,127.947 149.105,127.469 149.722 C 126.100 151.489,122.532 157.522,121.036 160.597 C 119.014 164.755,117.600 167.973,117.600 168.417 C 117.600 168.634,117.429 169.123,117.219 169.505 C 116.328 171.129,114.697 176.875,113.389 183.000 C 112.017 189.420,111.486 204.003,112.406 209.967 C 113.511 217.125,113.758 218.459,114.607 221.800 C 120.593 245.384,137.481 266.957,158.439 277.791 C 160.067 278.633,161.670 279.471,162.000 279.655 C 164.221 280.886,170.142 283.239,173.000 284.025 C 173.660 284.206,174.830 284.529,175.600 284.743 C 180.119 285.995,181.699 286.361,184.400 286.781 C 186.050 287.037,188.375 287.417,189.567 287.624 C 192.375 288.111,207.764 288.112,210.269 287.624 C 211.331 287.418,213.460 287.047,215.000 286.800 C 219.900 286.014,227.253 284.080,230.200 282.800 C 230.640 282.609,231.720 282.218,232.600 281.931 C 236.970 280.505,252.155 271.901,253.600 270.031 C 253.710 269.889,254.323 269.371,254.963 268.879 C 260.230 264.833,261.525 263.099,260.138 261.949 C 258.065 260.230,253.328 253.365,251.342 249.200 C 247.989 242.170,246.784 237.650,245.211 226.200 C 244.969 224.440,244.604 221.830,244.400 220.400 C 244.196 218.970,243.842 216.405,243.614 214.700 C 242.950 209.727,242.378 205.578,242.003 203.000 C 241.811 201.680,241.450 198.980,241.200 197.000 C 240.950 195.020,240.589 192.320,240.397 191.000 C 240.205 189.680,239.857 187.205,239.624 185.500 C 239.391 183.795,239.009 181.005,238.776 179.300 C 238.543 177.595,238.195 175.120,238.003 173.800 C 237.811 172.480,237.433 169.825,237.163 167.900 C 236.620 164.034,236.456 163.798,235.633 165.700 C 235.324 166.415,234.670 167.900,234.180 169.000 C 233.041 171.557,231.803 174.343,230.846 176.500 C 230.431 177.435,229.711 179.055,229.246 180.100 C 228.780 181.145,228.040 182.810,227.600 183.800 C 227.160 184.790,226.440 186.410,226.000 187.400 C 225.560 188.390,224.840 190.010,224.400 191.000 C 223.960 191.990,223.220 193.655,222.754 194.700 C 222.289 195.745,221.549 197.410,221.109 198.400 C 220.669 199.390,219.949 201.010,219.509 202.000 C 217.886 205.651,217.265 207.067,216.000 210.000 C 214.710 212.991,214.047 214.501,212.446 218.100 C 211.980 219.145,211.260 220.765,210.846 221.700 C 210.431 222.635,209.690 224.300,209.200 225.400 C 208.710 226.500,207.969 228.165,207.554 229.100 C 205.739 233.191,205.052 234.729,204.155 236.712 C 203.630 237.873,203.200 239.001,203.200 239.217 C 203.200 239.434,203.024 239.923,202.809 240.305 C 202.227 241.338,200.800 246.017,200.800 246.892 C 200.800 250.478,199.006 249.737,196.947 245.300 C 195.952 243.155,194.629 240.320,194.007 239.000 C 193.385 237.680,192.390 235.520,191.796 234.200 C 191.201 232.880,190.194 230.675,189.558 229.300 C 188.921 227.925,187.860 225.630,187.200 224.200 C 186.540 222.770,185.479 220.475,184.842 219.100 C 184.206 217.725,183.237 215.610,182.689 214.400 C 182.141 213.190,181.132 210.985,180.446 209.500 C 179.761 208.015,178.660 205.630,178.000 204.200 C 177.340 202.770,176.239 200.385,175.554 198.900 C 174.868 197.415,173.859 195.210,173.311 194.000 C 172.763 192.790,171.794 190.675,171.158 189.300 C 170.521 187.925,169.460 185.630,168.800 184.200 C 168.140 182.770,167.079 180.475,166.442 179.100 C 165.804 177.725,164.920 175.790,164.477 174.800 C 159.776 164.302,159.845 164.335,159.191 172.249 C 158.957 175.082,158.597 179.290,158.391 181.600 C 158.185 183.910,157.833 187.915,157.609 190.500 C 157.384 193.085,157.012 197.315,156.783 199.900 C 156.553 202.485,156.190 206.580,155.976 209.000 C 155.761 211.420,155.408 215.380,155.192 217.800 C 152.914 243.334,152.909 241.709,155.263 244.063 C 156.542 245.342,157.073 245.600,158.426 245.600 C 160.223 245.600,161.752 246.230,161.388 246.820 C 161.132 247.233,132.704 247.370,132.294 246.961 C 131.520 246.187,132.638 245.600,134.885 245.600 C 139.165 245.600,143.264 242.874,144.740 239.045 C 145.468 237.155,145.760 235.340,146.838 226.000 C 147.054 224.130,147.397 221.160,147.600 219.400 C 148.514 211.486,148.782 209.160,149.189 205.600 C 149.428 203.510,149.793 200.360,150.000 198.600 C 150.207 196.840,150.572 193.690,150.811 191.600 C 151.458 185.944,152.578 176.243,153.166 171.200 C 153.384 169.330,153.758 166.000,153.998 163.800 C 154.238 161.600,154.600 158.742,154.802 157.450 C 155.259 154.534,154.664 153.167,149.668 145.649 C 147.577 142.503,141.105 135.200,140.408 135.200 C 140.242 135.200,138.328 137.047,136.153 139.305 " stroke="none" fill="#040404" fill-rule="evenodd"></path></g></svg>